<mxfile host="Electron" modified="2024-07-04T14:20:37.766Z" agent="Mozilla/5.0 (Windows NT 10.0; Win64; x64) AppleWebKit/537.36 (KHTML, like Gecko) draw.io/24.6.4 Chrome/124.0.6367.207 Electron/30.0.6 Safari/537.36" etag="UExehsZCJm2LwWnZnvsF" version="24.6.4" type="device">
  <diagram name="Page-1" id="iUaqtdcvTYfYtxXok8Oz">
    <mxGraphModel dx="1418" dy="2158" grid="1" gridSize="10" guides="1" tooltips="1" connect="1" arrows="1" fold="1" page="1" pageScale="1" pageWidth="827" pageHeight="1169" math="0" shadow="0">
      <root>
        <mxCell id="0" />
        <mxCell id="1" parent="0" />
        <mxCell id="AuKwEum3UO_SJgh7rKBG-24" style="edgeStyle=orthogonalEdgeStyle;rounded=0;orthogonalLoop=1;jettySize=auto;html=1;exitX=0.25;exitY=0;exitDx=0;exitDy=0;entryX=1;entryY=0.5;entryDx=0;entryDy=0;" edge="1" parent="1" source="AuKwEum3UO_SJgh7rKBG-1" target="AuKwEum3UO_SJgh7rKBG-16">
          <mxGeometry relative="1" as="geometry" />
        </mxCell>
        <mxCell id="AuKwEum3UO_SJgh7rKBG-25" style="edgeStyle=orthogonalEdgeStyle;rounded=0;orthogonalLoop=1;jettySize=auto;html=1;exitX=0;exitY=0.25;exitDx=0;exitDy=0;entryX=1;entryY=0.5;entryDx=0;entryDy=0;" edge="1" parent="1" source="AuKwEum3UO_SJgh7rKBG-1" target="AuKwEum3UO_SJgh7rKBG-17">
          <mxGeometry relative="1" as="geometry" />
        </mxCell>
        <mxCell id="AuKwEum3UO_SJgh7rKBG-26" style="edgeStyle=orthogonalEdgeStyle;rounded=0;orthogonalLoop=1;jettySize=auto;html=1;exitX=0;exitY=0.75;exitDx=0;exitDy=0;entryX=0.5;entryY=0;entryDx=0;entryDy=0;" edge="1" parent="1" source="AuKwEum3UO_SJgh7rKBG-1" target="AuKwEum3UO_SJgh7rKBG-21">
          <mxGeometry relative="1" as="geometry" />
        </mxCell>
        <mxCell id="AuKwEum3UO_SJgh7rKBG-28" style="edgeStyle=orthogonalEdgeStyle;rounded=0;orthogonalLoop=1;jettySize=auto;html=1;exitX=0.25;exitY=1;exitDx=0;exitDy=0;entryX=0.25;entryY=0;entryDx=0;entryDy=0;" edge="1" parent="1" source="AuKwEum3UO_SJgh7rKBG-1" target="AuKwEum3UO_SJgh7rKBG-18">
          <mxGeometry relative="1" as="geometry" />
        </mxCell>
        <mxCell id="AuKwEum3UO_SJgh7rKBG-30" style="edgeStyle=orthogonalEdgeStyle;rounded=0;orthogonalLoop=1;jettySize=auto;html=1;exitX=0.75;exitY=1;exitDx=0;exitDy=0;entryX=0.5;entryY=0;entryDx=0;entryDy=0;" edge="1" parent="1" source="AuKwEum3UO_SJgh7rKBG-1" target="AuKwEum3UO_SJgh7rKBG-22">
          <mxGeometry relative="1" as="geometry">
            <Array as="points">
              <mxPoint x="280" y="190" />
              <mxPoint x="280" y="320" />
              <mxPoint x="290" y="320" />
            </Array>
          </mxGeometry>
        </mxCell>
        <mxCell id="AuKwEum3UO_SJgh7rKBG-1" value="Algoritmo PandaPower:&lt;br&gt;tarea2_sep_1_pp" style="rounded=1;whiteSpace=wrap;html=1;" vertex="1" parent="1">
          <mxGeometry x="165" y="130" width="120" height="60" as="geometry" />
        </mxCell>
        <mxCell id="AuKwEum3UO_SJgh7rKBG-9" value="" style="edgeStyle=orthogonalEdgeStyle;rounded=0;orthogonalLoop=1;jettySize=auto;html=1;" edge="1" parent="1" source="AuKwEum3UO_SJgh7rKBG-2" target="AuKwEum3UO_SJgh7rKBG-8">
          <mxGeometry relative="1" as="geometry" />
        </mxCell>
        <mxCell id="AuKwEum3UO_SJgh7rKBG-11" value="" style="edgeStyle=orthogonalEdgeStyle;rounded=0;orthogonalLoop=1;jettySize=auto;html=1;" edge="1" parent="1" source="AuKwEum3UO_SJgh7rKBG-2" target="AuKwEum3UO_SJgh7rKBG-10">
          <mxGeometry relative="1" as="geometry" />
        </mxCell>
        <mxCell id="AuKwEum3UO_SJgh7rKBG-12" style="edgeStyle=orthogonalEdgeStyle;rounded=0;orthogonalLoop=1;jettySize=auto;html=1;exitX=0.872;exitY=1.011;exitDx=0;exitDy=0;exitPerimeter=0;entryX=0.067;entryY=0.1;entryDx=0;entryDy=0;entryPerimeter=0;" edge="1" parent="1" source="AuKwEum3UO_SJgh7rKBG-2" target="AuKwEum3UO_SJgh7rKBG-13">
          <mxGeometry relative="1" as="geometry">
            <mxPoint x="680" y="250" as="targetPoint" />
          </mxGeometry>
        </mxCell>
        <mxCell id="AuKwEum3UO_SJgh7rKBG-15" style="edgeStyle=orthogonalEdgeStyle;rounded=0;orthogonalLoop=1;jettySize=auto;html=1;exitX=1;exitY=0;exitDx=0;exitDy=0;entryX=0;entryY=0.5;entryDx=0;entryDy=0;" edge="1" parent="1" source="AuKwEum3UO_SJgh7rKBG-2" target="AuKwEum3UO_SJgh7rKBG-14">
          <mxGeometry relative="1" as="geometry" />
        </mxCell>
        <mxCell id="AuKwEum3UO_SJgh7rKBG-2" value="&lt;div&gt;Algoritmo Newton-Raphson:&lt;/div&gt;tarea2_sep_1_nr" style="rounded=1;whiteSpace=wrap;html=1;" vertex="1" parent="1">
          <mxGeometry x="500" y="120" width="120" height="60" as="geometry" />
        </mxCell>
        <mxCell id="AuKwEum3UO_SJgh7rKBG-5" style="edgeStyle=orthogonalEdgeStyle;rounded=0;orthogonalLoop=1;jettySize=auto;html=1;exitX=1;exitY=1;exitDx=0;exitDy=0;entryX=0.5;entryY=0;entryDx=0;entryDy=0;" edge="1" parent="1" source="AuKwEum3UO_SJgh7rKBG-3" target="AuKwEum3UO_SJgh7rKBG-2">
          <mxGeometry relative="1" as="geometry">
            <Array as="points">
              <mxPoint x="442" y="60" />
              <mxPoint x="560" y="60" />
            </Array>
          </mxGeometry>
        </mxCell>
        <mxCell id="AuKwEum3UO_SJgh7rKBG-7" style="edgeStyle=orthogonalEdgeStyle;rounded=0;orthogonalLoop=1;jettySize=auto;html=1;entryX=0.5;entryY=0;entryDx=0;entryDy=0;" edge="1" parent="1" source="AuKwEum3UO_SJgh7rKBG-3" target="AuKwEum3UO_SJgh7rKBG-6">
          <mxGeometry relative="1" as="geometry" />
        </mxCell>
        <mxCell id="AuKwEum3UO_SJgh7rKBG-3" value="TAREA 2" style="ellipse;whiteSpace=wrap;html=1;" vertex="1" parent="1">
          <mxGeometry x="340" y="-50" width="120" height="80" as="geometry" />
        </mxCell>
        <mxCell id="AuKwEum3UO_SJgh7rKBG-6" value="Informe" style="rounded=1;whiteSpace=wrap;html=1;" vertex="1" parent="1">
          <mxGeometry x="340" y="120" width="120" height="60" as="geometry" />
        </mxCell>
        <mxCell id="AuKwEum3UO_SJgh7rKBG-8" value="Declaración de variables e iniciación" style="rounded=1;whiteSpace=wrap;html=1;" vertex="1" parent="1">
          <mxGeometry x="500" y="260" width="120" height="60" as="geometry" />
        </mxCell>
        <mxCell id="AuKwEum3UO_SJgh7rKBG-10" value="Funcion de calculo de la jacobiana" style="rounded=1;whiteSpace=wrap;html=1;" vertex="1" parent="1">
          <mxGeometry x="700" y="120" width="120" height="60" as="geometry" />
        </mxCell>
        <mxCell id="AuKwEum3UO_SJgh7rKBG-13" value="Función de calcul del error" style="rounded=1;whiteSpace=wrap;html=1;" vertex="1" parent="1">
          <mxGeometry x="700" y="240" width="120" height="60" as="geometry" />
        </mxCell>
        <mxCell id="AuKwEum3UO_SJgh7rKBG-14" value="Algoritmo de iteración" style="rounded=1;whiteSpace=wrap;html=1;" vertex="1" parent="1">
          <mxGeometry x="670" y="30" width="120" height="60" as="geometry" />
        </mxCell>
        <mxCell id="AuKwEum3UO_SJgh7rKBG-16" value="Función de creación del SEP" style="rounded=1;whiteSpace=wrap;html=1;" vertex="1" parent="1">
          <mxGeometry x="80" y="30" width="100" height="50" as="geometry" />
        </mxCell>
        <mxCell id="AuKwEum3UO_SJgh7rKBG-17" value="Función de creación de las barras" style="rounded=1;whiteSpace=wrap;html=1;" vertex="1" parent="1">
          <mxGeometry y="100" width="120" height="60" as="geometry" />
        </mxCell>
        <mxCell id="AuKwEum3UO_SJgh7rKBG-18" value="Función de creación de las líneas" style="rounded=1;whiteSpace=wrap;html=1;" vertex="1" parent="1">
          <mxGeometry x="155" y="245" width="110" height="50" as="geometry" />
        </mxCell>
        <mxCell id="AuKwEum3UO_SJgh7rKBG-19" value="Función de creación de transformador" style="rounded=1;whiteSpace=wrap;html=1;" vertex="1" parent="1">
          <mxGeometry x="290" y="220" width="120" height="60" as="geometry" />
        </mxCell>
        <mxCell id="AuKwEum3UO_SJgh7rKBG-20" value="Función de creación de cargas" style="rounded=1;whiteSpace=wrap;html=1;" vertex="1" parent="1">
          <mxGeometry x="30" y="250" width="120" height="60" as="geometry" />
        </mxCell>
        <mxCell id="AuKwEum3UO_SJgh7rKBG-21" value="Función de creación de generador" style="rounded=1;whiteSpace=wrap;html=1;" vertex="1" parent="1">
          <mxGeometry x="20" y="190" width="110" height="50" as="geometry" />
        </mxCell>
        <mxCell id="AuKwEum3UO_SJgh7rKBG-22" value="Resolución del flujo de potencia" style="rounded=1;whiteSpace=wrap;html=1;" vertex="1" parent="1">
          <mxGeometry x="230" y="340" width="120" height="60" as="geometry" />
        </mxCell>
        <mxCell id="AuKwEum3UO_SJgh7rKBG-23" style="edgeStyle=orthogonalEdgeStyle;rounded=0;orthogonalLoop=1;jettySize=auto;html=1;exitX=0;exitY=1;exitDx=0;exitDy=0;entryX=0.463;entryY=-0.018;entryDx=0;entryDy=0;entryPerimeter=0;" edge="1" parent="1" source="AuKwEum3UO_SJgh7rKBG-3" target="AuKwEum3UO_SJgh7rKBG-1">
          <mxGeometry relative="1" as="geometry" />
        </mxCell>
        <mxCell id="AuKwEum3UO_SJgh7rKBG-27" style="edgeStyle=orthogonalEdgeStyle;rounded=0;orthogonalLoop=1;jettySize=auto;html=1;exitX=0;exitY=1;exitDx=0;exitDy=0;entryX=0.875;entryY=0.018;entryDx=0;entryDy=0;entryPerimeter=0;" edge="1" parent="1" source="AuKwEum3UO_SJgh7rKBG-1" target="AuKwEum3UO_SJgh7rKBG-20">
          <mxGeometry relative="1" as="geometry" />
        </mxCell>
        <mxCell id="AuKwEum3UO_SJgh7rKBG-29" style="edgeStyle=orthogonalEdgeStyle;rounded=0;orthogonalLoop=1;jettySize=auto;html=1;exitX=1;exitY=1;exitDx=0;exitDy=0;entryX=0.074;entryY=-0.038;entryDx=0;entryDy=0;entryPerimeter=0;" edge="1" parent="1" source="AuKwEum3UO_SJgh7rKBG-1" target="AuKwEum3UO_SJgh7rKBG-19">
          <mxGeometry relative="1" as="geometry">
            <Array as="points">
              <mxPoint x="285" y="160" />
              <mxPoint x="299" y="160" />
            </Array>
          </mxGeometry>
        </mxCell>
      </root>
    </mxGraphModel>
  </diagram>
</mxfile>
